# xmcd
#
# Track frame offsets:
#	150
#	13894
#	27001
#	28515
#	44345
#	57340
#	74593
#	76641
#	93390
#	109169
#	120531
#	136760
#	154334
#	186446
#	187841
#	202309
#	202998
#	220964
#	238527
#	254234
#	272670
#	299237
#	314635
#
# Disc length: 4591 seconds
#
# Revision: 1
# Processed by: cddbd v1.5.2PL0 Copyright (c) Steve Scherf et al.
# Submitted via: audiograbber 1.83.01
#
DISCID=6211ed17
DTITLE=Karl Valentin - Wahrhaftige Weltbetrachtung
DYEAR=2007
DGENRE=A Cappella
TTITLE0=Der Zufall
TTITLE1=Der Diebstahl
TTITLE2=Der Verlorene Brillantring (Ausschnitt)
TTITLE3=Vor Gericht
TTITLE4=Das Aquarium
TTITLE5=Verkehrsordnung
TTITLE6=Eine Stadtradssitzung (Ausschnitt)
TTITLE7=Am Heuboden
TTITLE8=Geht Mit Seiner Mutter Ins Theater
TTITLE9=Der Ueberaengstliche Hausverkaeufer
TTITLE10=Wahre Freundschaft
TTITLE11=Die Vogelausstellung
TTITLE12=Berufsberatung
TTITLE13=Im Schallplattenladen (Ausschnitt)
TTITLE14=Der Vogelhaendler
TTITLE15=Die Orchesterprobe (Ausschnitt)
TTITLE16=Wappenkunde
TTITLE17=Semmelnknoedeln
TTITLE18=Der Ententraum
TTITLE19=Der Mensch Denkt, Gott Lenkt
TTITLE20=Der Ewige Friede
TTITLE21=Beim Feuerwerk
TTITLE22=Das Interview
EXTD=Titel Teilweise Gekuerzt (Ausschnitte]\nOriginal CD 2007 (Der Hoerverlag)
EXTT0=
EXTT1=
EXTT2=Titel Wurde Gekuerzt Aufgenommen (Ausschnitt)
EXTT3=
EXTT4=
EXTT5=
EXTT6=Titel Wurde Gekuerzt Aufgenommen (Ausschnitt)
EXTT7=
EXTT8=
EXTT9=
EXTT10=
EXTT11=
EXTT12=
EXTT13=Titel Wurde Gekuerzt Aufgenommen (Ausschnitt)
EXTT14=
EXTT15=Titel Wurde Gekuerzt Aufgenommen (Ausschnitt)
EXTT16=
EXTT17=
EXTT18=
EXTT19=
EXTT20=
EXTT21=
EXTT22=
PLAYORDER=
